<svg xmlns="http://www.w3.org/2000/svg" width="23.991" height="25" viewBox="0 0 23.991 25"><path d="M23.892,5.942a6.629,6.629,0,0,0-1.957-.65L21,5.166V2.907l.479-.007c.448.227,1.094.6,1.128,1.1h1.8A2.9,2.9,0,0,0,22.94,1.868,3.591,3.591,0,0,0,21,1.25V0H20V1.212a2.519,2.519,0,0,0-1.774.752,2.551,2.551,0,0,0-.854,2,2.155,2.155,0,0,0,.856,1.941A4.364,4.364,0,0,0,20,6.56V9.007c-.5-.089-.5-.066-.677-.276S19.106,8,19.048,8H17.26a2.182,2.182,0,0,0,.948,2.013A2.791,2.791,0,0,0,20,10.566V11.5h1v-.918a4.379,4.379,0,0,0,2.338-.768A2.788,2.788,0,0,0,24.49,7.773a2.089,2.089,0,0,0-.6-1.832ZM19.509,4.549a.742.742,0,0,1-.4-.719.885.885,0,0,1,.392-.817c.156-.1,0-.177.5-.227v1.97c-.5-.076-.381-.145-.491-.207Zm2.171,4.41C21.6,8.988,21,9.01,21,9.031V6.948c1,.086.923.179,1.089.279a.77.77,0,0,1,.392.688,1.047,1.047,0,0,1-.8,1.043ZM19.26,15h-.277L15.911,9.438A.936.936,0,0,0,15.17,9H5.85a.936.936,0,0,0-.741.438L2.036,15H1.76C1.209,15,.5,15.45.5,16v5c0,.55.71,1,1.26,1H2.5v1.5A1.75,1.75,0,0,0,4.26,25h.5C5.585,25,6,24.325,6,23.5V22h8.5v1.5A1.749,1.749,0,0,0,16.26,25h.5c.825,0,1.24-.675,1.24-1.5V22h1.26c.55,0,.74-.45.74-1V16C20,15.45,19.809,15,19.26,15ZM3.51,19a1.25,1.25,0,1,1,1.25-1.25A1.25,1.25,0,0,1,3.51,19Zm1-4,2.026-4.052A.887.887,0,0,1,7.26,10.5h6.5a.887.887,0,0,1,.724.448L16.51,15Zm13,4a1.25,1.25,0,1,1,1.25-1.25A1.25,1.25,0,0,1,17.51,19Z" transform="translate(-0.5)"/></svg>