<svg xmlns="http://www.w3.org/2000/svg" width="18.229" height="19.969" viewBox="0 0 18.229 19.969"><g transform="translate(-2.798 -1.998)"><g transform="translate(3.65 2.85)"><path d="M2.044,3.58c5.327-1.337,11.949-1.255,13.479.488s1.5,7.57-.29,9.169-9.553,1.751-12.013,0C.621,11.386,2.129,5.692,2.044,2.243,2.1.313,0,0,0,0" fill="none" stroke="#000" stroke-linecap="round" stroke-linejoin="round" stroke-width="1.5" fill-rule="evenodd"/><line x2="2.773" transform="translate(10.506 7.87)" fill="none" stroke="#000" stroke-linecap="round" stroke-linejoin="round" stroke-width="1.5"/><path d="M3.614,17.277a.545.545,0,1,1-.545.544A.545.545,0,0,1,3.614,17.277Z" stroke="#000" stroke-linecap="round" stroke-linejoin="round" stroke-width="1.5" fill-rule="evenodd"/><path d="M13.945,17.277a.545.545,0,1,1-.544.544A.545.545,0,0,1,13.945,17.277Z" stroke="#000" stroke-linecap="round" stroke-linejoin="round" stroke-width="1.5" fill-rule="evenodd"/></g></g></svg>