<svg xmlns="http://www.w3.org/2000/svg" width="21.878" height="15.62" viewBox="0 0 21.878 15.62"><g transform="translate(-1.56 -4.692)"><path d="M6.6,9.99a.947.947,0,1,0,.942.947A.944.944,0,0,0,6.6,9.99Z"/><path d="M22.769,12.153c-1.035-4.321-2.129-6.616-4.321-7.266a4.355,4.355,0,0,0-1.255-.2c-1.348,0-2.29.718-4.692.718s-3.345-.718-4.692-.718a4.307,4.307,0,0,0-1.255.2c-2.192.649-3.286,2.949-4.321,7.266s-.845,7.441.376,8.022a1.424,1.424,0,0,0,.61.137c1.06,0,2.2-1.162,3.306-2.539,1.255-1.567,1.567-1.611,5.386-1.611H13.1c3.813,0,4.131.039,5.386,1.611,1.1,1.377,2.246,2.539,3.306,2.539a1.44,1.44,0,0,0,.61-.137C23.613,19.59,23.8,16.47,22.769,12.153ZM6.6,12.871a1.934,1.934,0,1,1,1.914-1.934A1.928,1.928,0,0,1,6.6,12.871Zm8.442-.952a.981.981,0,1,1,.981-.981A.982.982,0,0,1,15.044,11.919Zm2.144,2.144a.979.979,0,1,1,.981-.977A.98.98,0,0,1,17.188,14.063Zm0-4.287a.981.981,0,1,1,.981-.981A.982.982,0,0,1,17.188,9.775Zm2.144,2.144a.981.981,0,1,1,.981-.981A.982.982,0,0,1,19.331,11.919Z"/></g></svg>