<svg xmlns="http://www.w3.org/2000/svg" width="20" height="23.001" viewBox="0 0 20 23.001"><path d="M9.24,9.438A2.764,2.764,0,0,0,11.4,6.911c.134-1.289.434-6.469-1.51-6.14-5.044.855-4.69,9.351-.651,8.666Zm6.636,0c4.038.685,4.392-7.811-.651-8.667-1.944-.329-1.644,4.851-1.51,6.14A2.766,2.766,0,0,0,15.876,9.438Zm-8.708,4A2.63,2.63,0,0,0,6.54,11.71C5.9,10.877,3.876,9.193,3.378,9.625c-1.038.9-1.005,3.125-.379,4.74A2.182,2.182,0,0,0,5,15.894,2.323,2.323,0,0,0,7.168,13.44ZM21.736,9.624c-.5-.432-2.523,1.253-3.16,2.086a2.631,2.631,0,0,0-.628,1.729,2.324,2.324,0,0,0,2.163,2.455,2.183,2.183,0,0,0,2.007-1.53c.624-1.615.659-3.838-.381-4.741Zm-4.068,7.639c-1.838-.917-1.781-2.681-2.2-4.292a3.014,3.014,0,0,0-5.8-.078c-.448,1.541-.178,3.335-2.182,4.359A2.8,2.8,0,0,0,5.2,20.386a3.47,3.47,0,0,0,2.924,3.277,6.639,6.639,0,0,0,4.434-.747,6.645,6.645,0,0,0,4.435.747,3.466,3.466,0,0,0,2.924-3.277,2.751,2.751,0,0,0-2.249-3.123ZM15.5,19.5H13.594l0,2H11.519l0-2H9.5v-2h2.023l0-2H13.6l0,2h1.9Z" transform="translate(-2.558 -0.756)"/></svg>