<svg xmlns="http://www.w3.org/2000/svg" width="20" height="20" viewBox="0 0 20 20"><g transform="translate(-2 -2)"><g transform="translate(2 2)"><path d="M5.426,16.908a1.546,1.546,0,1,1-1.519,1.551A1.533,1.533,0,0,1,5.426,16.908Zm11.241,0a1.546,1.546,0,1,1-1.519,1.551A1.533,1.533,0,0,1,16.668,16.908ZM.778,0l.1.009L3.263.375a.765.765,0,0,1,.62.694h0l.19,2.286a.615.615,0,0,0,.61.573H18.177a1.687,1.687,0,0,1,1.409.684,2.207,2.207,0,0,1,.38,1.754h0l-.949,6.695a2.568,2.568,0,0,1-2.528,2.235H5.586a2.568,2.568,0,0,1-2.538-2.387h0L2.129,1.783.62,1.518A.766.766,0,0,1,.88.009ZM14.889,7.7H12.121a.766.766,0,0,0,0,1.531h2.768a.766.766,0,0,0,0-1.531Z"/></g></g></svg>