<svg xmlns="http://www.w3.org/2000/svg" width="19" height="17.868" viewBox="0 0 19 17.868"><g transform="translate(-2.5 -2)"><g transform="translate(2.5 2)"><path d="M6.635,16.772V14.04a1.35,1.35,0,0,1,1.424-1.263h2.874a1.521,1.521,0,0,1,1.007.37,1.2,1.2,0,0,1,.417.893v2.732a1.028,1.028,0,0,0,.356.774,1.31,1.31,0,0,0,.87.321h1.961a3.685,3.685,0,0,0,2.443-.893A2.894,2.894,0,0,0,19,14.81V7.028a2.124,2.124,0,0,0-.9-1.7L11.434.6A3.386,3.386,0,0,0,7.485.667L.967,5.329A2.143,2.143,0,0,0,0,7.028V14.8a3.278,3.278,0,0,0,3.456,3.065H5.372A1.173,1.173,0,0,0,6.608,16.78Z" transform="translate(0 0)"/></g></g></svg>