<svg xmlns="http://www.w3.org/2000/svg" width="20.181" height="20" viewBox="0 0 20.181 20"><g transform="translate(-2 -2)"><g transform="translate(2 2)"><path d="M.75,10c0,6.937,2.313,9.25,9.25,9.25s9.25-2.313,9.25-9.25S16.937.75,10,.75.75,3.063.75,10Z" fill="none" stroke="#000" stroke-linecap="round" stroke-linejoin="round" stroke-width="1.5" fill-rule="evenodd"/><path d="M8.6,6.784A1.761,1.761,0,1,1,6.838,5.023,1.76,1.76,0,0,1,8.6,6.784Z" fill="none" stroke="#000" stroke-linecap="round" stroke-linejoin="round" stroke-width="1.5" fill-rule="evenodd"/><path d="M19.12,12.667c-.881-.906-2.127-2.737-4.416-2.737s-2.339,4.038-4.675,4.038-3.278-1.371-4.8-.655-2.762,3.561-2.762,3.561" fill="none" stroke="#000" stroke-linecap="round" stroke-linejoin="round" stroke-width="1.5" fill-rule="evenodd"/></g></g></svg>