<svg xmlns="http://www.w3.org/2000/svg" width="17.875" height="16.972" viewBox="0 0 17.875 16.972"><path d="M14.938,8.015a2.289,2.289,0,0,1,2.346,2.228,2.349,2.349,0,0,1-4.692,0,2.289,2.289,0,0,1,2.346-2.228m0,9.547c3.318,0,6.815,1.549,6.815,2.228v1.167H8.123V19.79c0-.679,3.5-2.228,6.815-2.228M14.938,6a4.359,4.359,0,0,0-4.469,4.243,4.359,4.359,0,0,0,4.469,4.243,4.359,4.359,0,0,0,4.469-4.243A4.359,4.359,0,0,0,14.938,6Zm0,9.547C11.955,15.547,6,16.968,6,19.79v3.182H23.875V19.79C23.875,16.968,17.921,15.547,14.938,15.547Z" transform="translate(-6 -6)"/></svg>