<svg xmlns="http://www.w3.org/2000/svg" width="20" height="18" viewBox="0 0 20 18"><g transform="translate(-2 -3)"><g transform="translate(2 3)"><path d="M15.3,9.829a17.975,17.975,0,0,1,2.986.2,7.457,7.457,0,0,1,.834.209,1.5,1.5,0,0,1,.709.65,1.629,1.629,0,0,1,.171.732,3.881,3.881,0,0,1-.263.963,17.777,17.777,0,0,1-3.155,4.736c-.16.162-.355.336-.4.382a1.434,1.434,0,0,1-.892.3,1.361,1.361,0,0,1-.836-.279,3.929,3.929,0,0,1-.39-.349l-.044-.045h0A17.694,17.694,0,0,1,10.909,12.7a4.489,4.489,0,0,1-.312-.984l-.009-.094v-.046a1.463,1.463,0,0,1,.778-1.289A6.485,6.485,0,0,1,12.407,10,20.868,20.868,0,0,1,15.3,9.829ZM4.706,9.891a.939.939,0,0,1,.928.837l.006.111L5.9,15.417a1.19,1.19,0,0,1-2.375.124l-.006-.124.257-4.579A.941.941,0,0,1,4.706,9.891ZM4.712,0a1.371,1.371,0,0,1,.834.278,3.579,3.579,0,0,1,.341.3L5.98.673A17.742,17.742,0,0,1,9.091,5.3,4.576,4.576,0,0,1,9.4,6.29l.009.094V6.43a1.465,1.465,0,0,1-.778,1.288A6.358,6.358,0,0,1,7.593,8,20.868,20.868,0,0,1,4.7,8.17a17.975,17.975,0,0,1-2.986-.2A7.394,7.394,0,0,1,.88,7.764a1.491,1.491,0,0,1-.709-.65A1.628,1.628,0,0,1,0,6.384a3.917,3.917,0,0,1,.262-.963A17.743,17.743,0,0,1,3.419.685c.16-.163.355-.337.4-.384A1.432,1.432,0,0,1,4.712,0ZM15.295,1.375a1.2,1.2,0,0,1,1.184,1.084l.006.124-.256,4.579a.933.933,0,0,1-1.862.111l-.006-.111L14.1,2.583A1.2,1.2,0,0,1,15.295,1.375Z"/></g></g></svg>